<svg width="235" height="204" viewBox="0 0 235 204" fill="none" xmlns="http://www.w3.org/2000/svg">
<path d="M29.0262 122.374C32.329 122.374 35.7257 122.205 39.1138 121.858C44.1562 121.348 49.109 120.466 53.8494 119.263C51.0291 110.797 48.2074 98.4168 47.0747 91.0547C44.3512 91.5818 40.3838 92.2566 35.8774 92.7127C29.0883 93.4159 23.1603 93.3548 18.794 92.5763C17.6917 98.3671 16.7366 112.526 17.5717 121.584C21.0436 122.1 24.8969 122.374 29.0262 122.374Z" fill="#9ECE61"/>
<path d="M41.9917 159.094C45.6586 159.094 49.4021 158.892 53.1138 158.524C59.117 157.909 64.8225 156.818 69.6699 155.329C66.9348 150.248 59.7469 136.644 56.8024 128.554C51.7297 129.787 45.7886 130.768 39.9733 131.362C31.644 132.205 24.0645 132.181 18.7852 131.316C19.8875 138.172 23.3854 150.751 27.3948 157.808C30.9895 158.616 36.2861 159.094 41.9917 159.094Z" fill="#D1E169"/>
<path d="M11.815 129.515C8.88779 128.613 4.79176 126.28 1.41235 122.839C3.66625 132.548 6.66423 138.983 9.12329 144.238C9.54084 145.173 9.97139 146.038 10.3572 146.882C12.6053 149.708 15.1698 152.605 19.1705 154.885C15.8055 146.567 12.757 135.546 11.815 129.515Z" fill="#9ECE61"/>
<path d="M91.4039 184.464C85.5697 178.419 78.5451 169.364 74.7279 163.554C69.0267 165.17 61.6437 166.514 54.3633 167.248C46.1308 168.089 38.6554 168.067 32.9397 167.215C37.7307 174.27 44.6051 182.622 50.5042 186.437C53.7536 187.167 59.0199 188.005 66.0215 188.005H66.0316C69.0021 188.005 72.0478 187.849 75.0934 187.557C80.4869 186.995 85.9699 185.961 91.4039 184.464Z" fill="#F5D35A"/>
<path d="M105.572 96.7362C102.706 92.629 99.2857 87.915 96.2401 83.7467C93.0673 79.351 90.3221 75.5733 88.441 72.8101C79.7461 78.1548 66.0985 85.0154 54.2915 88.7874C55.4604 95.1322 58.7097 108.289 61.6976 117.037C74.1952 113.073 93.5065 104.132 105.572 96.7362Z" fill="#D1E169"/>
<path d="M128.972 129.348C123.285 121.732 115.05 110.341 111.178 104.85C99.5672 111.67 79.8224 121.195 65.0464 125.937C67.1804 131.367 73.4956 144.848 77.9659 152.757C91.4459 148.619 112.832 139.646 128.972 129.348Z" fill="#F5D35A"/>
<path d="M78.3045 194.663C75.7732 194.926 71.8678 195.23 67.597 195.23C65.7578 195.23 63.9749 195.179 62.3032 195.064C72.5556 200.534 83.2385 203.19 94.849 203.19C97.4366 203.19 100.092 203.064 102.765 202.79C106.166 202.443 109.651 201.876 113.176 201.075C107.698 198.262 101.401 193.845 97.8628 190.705C93.3377 192.396 85.9143 193.895 78.3045 194.663Z" fill="#E8B227"/>
<path d="M150.677 158.777C148.146 155.382 144.284 150.153 140.78 145.393L140.52 145.046C138.237 141.935 136.125 139.079 134.666 137.128C122.391 144.836 100.178 155.696 83.147 161.117C87.0754 167.044 94.5797 176.106 100.048 182.057C113.037 177.989 135.201 168.323 150.677 158.777Z" fill="#E8B227"/>
<path d="M165.475 178.832C162.802 175.238 159.144 170.565 156.683 167.411L155.413 165.802C145.206 172.221 120.946 184.106 107.06 188.101C111.686 191.94 118.257 196.623 123.091 198.415C137.326 193.912 150.041 188.032 165.475 178.832Z" fill="#ED8959"/>
<path d="M10.6656 119.275C10.5688 112.018 11.0065 97.8167 12.6594 90.878C8.98815 89.3067 4.42401 83.756 4.27086 75.5869C-0.239831 89.2925 -0.521569 101.735 0.468124 108.742C0.671842 110.205 4.75776 116.468 10.6656 119.275Z" fill="#9ECE61"/>
<path d="M19.5566 162.711C23.6281 167.982 27.9972 172.456 31.9719 176.047C27.9958 170.827 25.4124 166.513 24.3592 164.686C22.8566 164.333 21.1676 163.57 19.5566 162.711Z" fill="#D1E169"/>
<path d="M169.439 183.959C157.859 191.011 144.141 197.696 133.526 201.486C136.509 201.968 139.275 202.117 141.601 201.887C142.502 201.799 143.338 201.64 144.102 201.441C151.069 199.566 160.733 195.221 172.871 188.494C171.663 186.944 170.683 185.617 169.91 184.59L169.439 183.959Z" fill="#D95068"/>
<path d="M16.3589 86.1282C10.3557 83.1887 11.448 75.5837 15.6076 70.3228C22.3534 62.0429 36.134 48.2763 53.2593 36.1094C56.958 41.9854 61.1537 48.2934 64.6473 53.2303C54.9541 60.115 36.618 74.4997 26.2284 86.9422C23.0628 87.583 20.3943 86.9209 16.3589 86.1282Z" fill="#5B8DC0"/>
<path d="M44.3296 21.1348C34.9484 27.4796 20.6723 41.8984 16.6066 46.8695C14.045 50.5136 12.1812 58.7381 12.1812 65.2321C22.1315 52.5693 41.1365 36.4528 49.1682 30.0767C47.0863 26.6059 45.9376 24.4194 44.3296 21.1348Z" fill="#5B8DC0"/>
<path d="M123.224 22.8645C117.576 16.7952 109.861 10.0909 107.062 8.4585C93.5198 13.1823 74.4194 21.5247 60.7039 31.025C63.3637 34.8311 68.8107 42.3992 72.7232 47.7353C90.3022 36.6908 107.267 28.3242 123.224 22.8645Z" fill="#64BBC5"/>
<path d="M56.5672 25.0528C65.8328 19.4026 84.0085 9.54999 98.8842 3.91831C94.5816 1.96058 89.1433 0.115077 85.8968 0C74.4959 3.7734 60.5549 10.5701 50.957 16.986C52.0984 18.992 53.9203 21.4683 55.5472 23.6718C55.8925 24.1478 56.2349 24.6109 56.5672 25.0528Z" fill="#64BBC5"/>
<path d="M95.0063 68.9336C99.1443 74.1021 108.53 86.468 112.734 92.111C122.355 85.9522 140.155 71.7608 150.221 59.8951C142.653 54.0418 130.601 46.7365 124.186 43.3467C118.022 51.5754 101.025 64.4626 95.0063 68.9336Z" fill="#F5D35A"/>
<path d="M137.12 123.97C149.936 115.365 172.318 97.1955 179.853 86.9934C174.462 81.1515 164.606 71.2406 157.915 66.082C150.182 75.5454 130.943 92.2174 118.747 100.011C122.729 105.271 131.382 116.541 137.12 123.97Z" fill="#E8B227"/>
<path d="M158.527 153.714C168.653 147.231 193.144 127.383 201.12 116.333C196.35 107.464 189.681 98.4401 186.539 94.3442C179.728 101.951 160.942 119.643 142.837 131.601C144.919 134.562 148.578 139.703 152.125 144.696C154.549 148.115 156.888 151.393 158.527 153.714Z" fill="#ED8959"/>
<path d="M172.871 174.126C187.253 165.376 201.516 151.92 208.893 142.907C208.088 135.495 206.353 128.999 204.861 124.977C195.675 135.596 178.234 150.566 163.499 160.44C164.99 162.605 167.338 166.031 169.537 169.263L172.871 174.126Z" fill="#D95068"/>
<path d="M179.519 184.125C190.79 176.397 198.703 169.203 201.6 165.458C204.635 160.775 206.256 157.353 207.326 154.203C200.165 161.903 188.153 172.34 176.636 179.473C177.577 180.949 178.599 182.612 179.519 184.125Z" fill="#9D5B85"/>
<path d="M185.631 79.9209C191.722 72.1497 201.663 55.1097 201.378 46.1436C195.961 41.1569 185.254 32.3912 178.06 28.7939C176.4 38.2147 171.712 47.6652 162.974 59.2738C168.217 63.2518 178.416 72.5475 185.631 79.9209Z" fill="#ED8959"/>
<path d="M201.064 33.4781C202.263 28.4331 203.24 17.4397 201.117 11.8407C197.44 8.87569 190.404 3.76256 186.191 1.76221C187.465 7.6965 187.315 13.77 185.716 21.3126C189.088 23.634 196.013 29.1151 201.064 33.4781Z" fill="#ED8959"/>
<path d="M223.929 55.451C224.799 51.8694 225.664 43.7956 224.445 39.164C222.181 36.2218 217.857 30.9921 215.233 28.6479C215.92 33.3761 215.685 37.911 214.518 43.2813C216.582 45.6823 220.83 51.1619 223.929 55.451Z" fill="#D95068"/>
<path d="M234.416 26.5986C234.799 23.7671 234.874 17.506 233.64 14.0395C231.735 11.9397 228.121 8.23733 225.995 6.61914C226.846 10.1979 226.994 13.7127 226.489 17.9138C228.227 19.6129 231.788 23.5142 234.416 26.5986Z" fill="#9D5B85"/>
<path d="M233.378 89.7798C233.902 86.6542 235.104 81.1135 234.547 75.5557C233.774 71.16 231.36 64.6049 228.841 61.3315C229.299 65.7798 228.721 69.2776 228.006 73.9744C230.225 76.5232 232.419 84.087 233.378 89.7798Z" fill="#9D5B85"/>
<path d="M221.88 76.3365C219.681 69.1989 213.763 60.3365 208.97 54.415C207.211 62.5543 201.902 75.4074 192.075 87.2021C196.582 92.6292 202.852 101.592 206.812 109.425C213.394 101.348 222.031 86.371 221.88 76.3365Z" fill="#D95068"/>
<path d="M225.611 90.4326C222.489 101.064 216.26 110.112 210.493 117.871C211.497 120.466 214.082 127.628 215.167 134.879C219.283 128.904 222.071 122.545 223.96 118.22C224.525 116.957 224.99 115.859 225.425 114.951C227.049 111.536 227.348 100.798 225.611 90.4326Z" fill="#9D5B85"/>
</svg>
