<svg width="441" height="106" viewBox="0 0 441 106" fill="none" xmlns="http://www.w3.org/2000/svg">
<path d="M14.9718 63.4256C16.6754 63.4256 18.4275 63.338 20.175 63.1583C22.7759 62.894 25.3306 62.4367 27.7757 61.813C26.321 57.4252 24.8655 51.0087 24.2813 47.1929C22.8765 47.4661 20.8301 47.8159 18.5057 48.0522C15.0038 48.4167 11.9462 48.3851 9.69406 47.9816C9.12544 50.9829 8.63284 58.3213 9.06359 63.0162C10.8544 63.2835 12.8419 63.4256 14.9718 63.4256Z" fill="#9ECE61"/>
<path d="M21.6594 82.4574C23.5508 82.4574 25.4817 82.3528 27.3962 82.1621C30.4927 81.8433 33.4356 81.2778 35.9359 80.5061C34.5252 77.8729 30.8176 70.8217 29.2988 66.629C26.6823 67.2681 23.6179 67.7762 20.6183 68.084C16.322 68.5214 12.4125 68.5089 9.68945 68.0604C10.2581 71.614 12.0623 78.1336 14.1303 81.791C15.9845 82.21 18.7165 82.4574 21.6594 82.4574Z" fill="#D1E169"/>
<path d="M6.0942 67.1269C4.58436 66.6594 2.47162 65.4503 0.728516 63.6669C1.89108 68.699 3.43744 72.0339 4.70583 74.7577C4.9212 75.2422 5.14328 75.6906 5.34226 76.128C6.50185 77.5926 7.82464 79.094 9.88819 80.2758C8.15254 75.9645 6.5801 70.2527 6.0942 67.1269Z" fill="#9ECE61"/>
<path d="M47.1464 95.6062C44.1371 92.4731 40.5138 87.7804 38.5449 84.7687C35.6042 85.6067 31.7961 86.3033 28.0408 86.6832C23.7945 87.1191 19.9386 87.1081 16.9905 86.6663C19.4617 90.323 23.0075 94.6519 26.0503 96.629C27.7263 97.0075 30.4427 97.4419 34.0541 97.4419H34.0593C35.5915 97.4419 37.1625 97.361 38.7334 97.2093C41.5154 96.9184 44.3436 96.3823 47.1464 95.6062Z" fill="#F5D35A"/>
<path d="M54.4543 50.1377C52.9757 48.0089 51.2118 45.5658 49.6408 43.4053C48.0043 41.1271 46.5883 39.1691 45.618 37.7369C41.1332 40.5071 34.0937 44.0629 28.0037 46.0179C28.6066 49.3064 30.2826 56.1257 31.8237 60.6593C38.27 58.6049 48.2308 53.9711 54.4543 50.1377Z" fill="#D1E169"/>
<path d="M66.5242 67.0404C63.591 63.0929 59.3431 57.1889 57.3459 54.3429C51.3572 57.8781 41.1728 62.8145 33.5513 65.2724C34.652 68.0867 37.9094 75.0739 40.2152 79.1731C47.1682 77.0282 58.1992 72.3774 66.5242 67.0404Z" fill="#F5D35A"/>
<path d="M40.3895 100.893C39.0838 101.029 37.0694 101.186 34.8665 101.186C33.9178 101.186 32.9982 101.16 32.136 101.1C37.4242 103.935 42.9344 105.312 48.9231 105.312C50.2579 105.312 51.6276 105.247 53.0063 105.104C54.7606 104.925 56.5581 104.631 58.3764 104.216C55.5505 102.758 52.3028 100.468 50.4777 98.8411C48.1436 99.7174 44.3146 100.494 40.3895 100.893Z" fill="#E8B227"/>
<path d="M77.7197 82.293C76.4141 80.5331 74.4221 77.8234 72.6149 75.3559L72.4807 75.1762C71.3033 73.5636 70.2137 72.0836 69.461 71.0726C63.1295 75.0672 51.6723 80.6959 42.8875 83.5058C44.9137 86.5778 48.7845 91.2742 51.6052 94.3587C58.3049 92.2506 69.7368 87.2405 77.7197 82.293Z" fill="#E8B227"/>
<path d="M85.3522 92.6876C83.9736 90.8246 82.0866 88.4028 80.8175 86.7681L80.1624 85.9338C74.8974 89.2606 62.3841 95.4209 55.2217 97.4915C57.6079 99.4811 60.9972 101.908 63.4908 102.837C70.8328 100.503 77.3917 97.4554 85.3522 92.6876Z" fill="#ED8959"/>
<path d="M5.50132 61.8193C5.45139 58.0581 5.6772 50.6976 6.52975 47.1013C4.63611 46.2869 2.28191 43.41 2.20292 39.176C-0.123705 46.2795 -0.269026 52.7284 0.241459 56.3601C0.346538 57.1185 2.45406 60.3643 5.50132 61.8193Z" fill="#9ECE61"/>
<path d="M10.0874 84.332C12.1875 87.0638 14.4411 89.3826 16.4912 91.244C14.4403 88.5387 13.1078 86.3024 12.5646 85.3555C11.7895 85.1729 10.9183 84.7775 10.0874 84.332Z" fill="#D1E169"/>
<path d="M87.3973 95.345C81.4243 99.0003 74.3483 102.465 68.873 104.429C70.412 104.679 71.8383 104.756 73.0382 104.637C73.5032 104.591 73.9339 104.509 74.3282 104.406C77.9217 103.434 82.9066 101.182 89.1673 97.6955C88.5443 96.8921 88.039 96.2044 87.6403 95.672L87.3973 95.345Z" fill="#D95068"/>
<path d="M8.43789 44.6397C5.34144 43.1162 5.90483 39.1746 8.05037 36.4479C11.5299 32.1565 18.6379 25.0213 27.4712 18.7153C29.379 21.7608 31.5431 25.0301 33.3451 27.5889C28.3453 31.1573 18.8876 38.6127 13.5286 45.0616C11.8958 45.3937 10.5193 45.0506 8.43789 44.6397Z" fill="#5B8DC0"/>
<path d="M22.8652 10.9541C18.0264 14.2426 10.6627 21.7158 8.56561 24.2922C7.24431 26.181 6.28296 30.4436 6.28296 33.8095C11.4154 27.2464 21.2182 18.8934 25.361 15.5886C24.2871 13.7898 23.6946 12.6565 22.8652 10.9541Z" fill="#5B8DC0"/>
<path d="M63.5588 11.8503C60.6457 8.70465 56.6661 5.22985 55.2226 4.38379C48.2375 6.83213 38.3855 11.1559 31.311 16.0799C32.683 18.0525 35.4925 21.975 37.5106 24.7407C46.5779 19.0164 55.3285 14.6801 63.5588 11.8503Z" fill="#64BBC5"/>
<path d="M29.1774 12.9847C33.9566 10.0562 43.3317 4.9497 51.0046 2.03084C48.7853 1.01615 45.9803 0.0596438 44.3057 0C38.4251 1.95573 31.2343 5.4784 26.2837 8.80372C26.8724 9.84344 27.8122 11.1269 28.6513 12.269C28.8294 12.5156 29.006 12.7557 29.1774 12.9847Z" fill="#64BBC5"/>
<path d="M49.0044 35.7278C51.1387 38.4066 55.9798 44.8157 58.1484 47.7405C63.1109 44.5484 72.2922 37.1931 77.4843 31.0432C73.5807 28.0094 67.364 24.2232 64.0552 22.4662C60.876 26.7311 52.109 33.4105 49.0044 35.7278Z" fill="#F5D35A"/>
<path d="M70.7264 64.253C77.3374 59.793 88.8818 50.3759 92.7682 45.0882C89.9877 42.0603 84.9038 36.9236 81.4526 34.2499C77.4641 39.1547 67.5405 47.7957 61.25 51.8353C63.3039 54.5612 67.7671 60.4026 70.7264 64.253Z" fill="#E8B227"/>
<path d="M81.7683 79.6689C86.9916 76.3089 99.6241 66.0215 103.738 60.2942C101.278 55.698 97.8378 51.0207 96.2169 48.8978C92.7039 52.8402 83.0143 62.0099 73.6758 68.2077C74.7497 69.7422 76.6366 72.4071 78.4662 74.9946C79.7167 76.767 80.9232 78.4657 81.7683 79.6689Z" fill="#ED8959"/>
<path d="M89.1673 90.2485C96.5854 85.7133 103.942 78.7394 107.747 74.0681C107.332 70.2265 106.437 66.8592 105.668 64.7747C100.929 70.2788 91.9336 78.0377 84.333 83.1553C85.1021 84.2775 86.3131 86.0528 87.4473 87.728L89.1673 90.2485Z" fill="#D95068"/>
<path d="M92.5961 95.4306C98.4097 91.4256 102.491 87.6967 103.986 85.7557C105.551 83.3287 106.387 81.5549 106.939 79.9224C103.246 83.9134 97.0496 89.3226 91.1094 93.0198C91.5945 93.7848 92.1214 94.6464 92.5961 95.4306Z" fill="#9D5B85"/>
<path d="M95.7488 41.4223C98.8907 37.3945 104.018 28.5628 103.871 23.9158C101.077 21.3312 95.5543 16.7879 91.8438 14.9235C90.9875 19.8062 88.5692 24.7044 84.062 30.721C86.7665 32.7828 92.0271 37.6007 95.7488 41.4223Z" fill="#ED8959"/>
<path d="M103.709 17.3516C104.328 14.7368 104.831 9.039 103.737 6.13707C101.84 4.60032 98.2108 1.95022 96.0377 0.913452C96.695 3.98916 96.6175 7.13703 95.7925 11.0463C97.5319 12.2495 101.104 15.0903 103.709 17.3516Z" fill="#ED8959"/>
<path d="M115.503 28.7398C115.952 26.8835 116.398 22.6989 115.769 20.2984C114.601 18.7734 112.371 16.0629 111.018 14.848C111.372 17.2985 111.251 19.6489 110.649 22.4323C111.714 23.6767 113.905 26.5168 115.503 28.7398Z" fill="#D95068"/>
<path d="M120.913 13.7857C121.11 12.3181 121.149 9.07308 120.512 7.2764C119.529 6.18809 117.666 4.26918 116.569 3.43048C117.008 5.28533 117.084 7.10705 116.823 9.28441C117.72 10.1651 119.557 12.1871 120.913 13.7857Z" fill="#9D5B85"/>
<path d="M120.377 46.5323C120.647 44.9124 121.268 42.0406 120.98 39.1601C120.581 36.8818 119.336 33.4843 118.037 31.7878C118.273 34.0933 117.975 35.9061 117.606 38.3405C118.751 39.6615 119.882 43.5818 120.377 46.5323Z" fill="#9D5B85"/>
<path d="M114.446 39.5646C113.312 35.8652 110.26 31.2719 107.787 28.2028C106.88 32.4213 104.141 39.083 99.073 45.1962C101.397 48.009 104.632 52.6546 106.674 56.714C110.069 52.5279 114.524 44.7654 114.446 39.5646Z" fill="#D95068"/>
<path d="M116.371 46.8707C114.76 52.3808 111.547 57.0706 108.573 61.0917C109.09 62.437 110.424 66.1489 110.983 69.9072C113.107 66.8102 114.545 63.5143 115.519 61.2729C115.81 60.6183 116.05 60.0491 116.274 59.5785C117.112 57.8084 117.266 52.2431 116.371 46.8707Z" fill="#9D5B85"/>
<path d="M143.07 77.811L151.229 66.3361C156.144 71.4007 163.785 75.7415 173.407 75.7415C181.664 75.7415 185.541 72.1245 185.541 68.0971C185.541 56.1084 145.364 64.4746 145.364 38.5373C145.364 27.0645 155.41 17.5552 171.833 17.5552C182.924 17.5552 192.125 20.8705 199.03 27.1665L190.768 38.1269C185.123 32.9555 177.586 30.5782 170.474 30.5782C164.199 30.5782 160.643 33.2696 160.643 37.3996C160.643 48.2519 200.708 40.9147 200.708 66.6447C200.708 79.2545 191.502 88.7693 172.776 88.7693C159.286 88.77 149.655 84.3239 143.07 77.811Z" fill="#322C2C"/>
<path d="M285.639 18.5949H270.79V87.5234H285.639V18.5949Z" fill="#322C2C"/>
<path d="M363.138 77.811L371.302 66.3361C376.214 71.4007 383.855 75.7415 393.471 75.7415C401.734 75.7415 405.598 72.1245 405.598 68.0971C405.598 56.1084 365.44 64.4746 365.44 38.5373C365.44 27.0645 375.48 17.5552 391.903 17.5552C402.995 17.5552 412.197 20.8705 419.1 27.1665L410.831 38.1269C405.187 32.9555 397.658 30.5782 390.546 30.5782C384.273 30.5782 380.708 33.2696 380.708 37.3996C380.708 48.2519 420.773 40.9147 420.773 66.6447C420.773 79.2545 411.567 88.7693 392.839 88.7693C379.354 88.77 369.726 84.3239 363.138 77.811Z" fill="#322C2C"/>
<path d="M240.643 18.7178H208.154V87.3302H222.938V64.4537V62.848V49.9933V48.233V31.5794H238.556C244.381 31.5794 248.855 35.0732 248.855 40.8363C248.855 46.4981 244.381 49.9933 238.556 49.9933H230.203V62.848H240.643C255.631 62.848 263.966 52.7674 263.966 40.8363C263.966 28.8052 255.732 18.7178 240.643 18.7178Z" fill="#322C2C"/>
<path d="M342.939 87.5234L309.554 42.4641V87.5234H294.769V18.5949H309.969L342.133 61.7038V18.5949H356.925V87.5234H342.939Z" fill="#322C2C"/>
<path d="M432.991 29.7807C429.294 29.7807 426.292 26.8143 426.292 23.1617C426.292 19.4777 429.295 16.5428 432.991 16.5428C436.719 16.5428 439.69 19.4777 439.69 23.1617C439.69 26.8143 436.72 29.7807 432.991 29.7807ZM432.991 17.4479C429.8 17.4479 427.208 19.9456 427.208 23.1617C427.208 26.2841 429.799 28.8756 432.991 28.8756C436.183 28.8756 438.774 26.2841 438.774 23.1617C438.774 19.9456 436.183 17.4479 432.991 17.4479ZM434.824 26.9703L432.833 23.9731H431.443V26.9703H430.432V19.3833H433.56C434.856 19.3833 435.993 20.2884 435.993 21.6936C435.993 23.3793 434.476 23.9416 434.034 23.9416L436.088 26.9703H434.824ZM433.56 20.2576H431.443V23.0673H433.56C434.224 23.0673 434.95 22.4742 434.95 21.6936C434.95 20.8507 434.224 20.2576 433.56 20.2576Z" fill="#322C2C"/>
</svg>
